<svg width="796" height="847" viewBox="0 0 796 847" fill="none" xmlns="http://www.w3.org/2000/svg">
<path d="M373.36 484.803C317.679 484.803 253.688 423.014 197.071 452.371C25.6507 541.259 49.2476 392.519 0 337.202L1.61681 333.959C55.9559 382.683 123.8 422.325 197.815 448.599C264.702 472.345 332.09 483.348 392.67 480.444L392.775 484.342C386.377 484.651 379.906 484.804 373.36 484.803Z" fill="#F2F2F2"/>
<path d="M779.81 125.671C735.423 159.29 647.105 148.669 619.698 206.255C536.715 380.61 465.722 247.794 393.065 233.431L392.396 229.869C465.13 235.902 543.148 226.542 618.014 202.799C685.67 181.344 746.032 149.429 792.571 110.538L795.008 113.582C790.095 117.691 785.029 121.72 779.81 125.671Z" fill="#F2F2F2"/>
<path d="M123.376 225.486C129.804 225.486 135.015 218.498 135.015 209.879C135.015 201.259 129.804 194.271 123.376 194.271C116.948 194.271 111.737 201.259 111.737 209.879C111.737 218.498 116.948 225.486 123.376 225.486Z" fill="#E6E6E6"/>
<path d="M612.498 371.534C618.926 371.534 624.137 364.546 624.137 355.926C624.137 347.307 618.926 340.319 612.498 340.319C606.071 340.319 600.86 347.307 600.86 355.926C600.86 364.546 606.071 371.534 612.498 371.534Z" fill="#E6E6E6"/>
<path d="M292.846 31.2142C299.274 31.2142 304.485 24.2267 304.485 15.6071C304.485 6.98754 299.274 0 292.846 0C286.418 0 281.208 6.98754 281.208 15.6071C281.208 24.2267 286.418 31.2142 292.846 31.2142Z" fill="#E6E6E6"/>
<path d="M501.508 576.105L487.973 494.71C487.701 493.063 488.093 491.374 489.065 490.016C490.036 488.657 491.506 487.739 493.153 487.463L554.625 477.242C556.272 476.969 557.961 477.362 559.319 478.333C560.678 479.304 561.596 480.775 561.872 482.422L575.407 563.817C575.679 565.465 575.286 567.153 574.315 568.512C573.344 569.87 571.873 570.788 570.226 571.064L508.755 581.286C507.107 581.558 505.419 581.165 504.06 580.194C502.701 579.223 501.784 577.753 501.508 576.105Z" fill="#3F3D56"/>
<path d="M502.135 550.736L493.433 498.408C493.179 496.865 493.546 495.283 494.456 494.011C495.365 492.739 496.743 491.879 498.285 491.621L551.115 482.836C552.658 482.581 554.239 482.949 555.511 483.858C556.784 484.768 557.644 486.145 557.902 487.687L569.946 560.118C570.201 561.661 569.833 563.242 568.924 564.515C568.014 565.787 566.637 566.647 565.094 566.905L532.367 572.347C525.494 573.482 518.45 571.844 512.782 567.793C507.115 563.741 503.286 557.607 502.135 550.736Z" fill="white"/>
<path d="M504.415 511.587C504.166 510.079 504.525 508.534 505.414 507.29C506.303 506.047 507.649 505.207 509.156 504.954L545.804 498.86C546.55 498.736 547.314 498.76 548.052 498.931C548.789 499.102 549.486 499.417 550.102 499.857C550.718 500.297 551.241 500.855 551.641 501.497C552.042 502.14 552.312 502.855 552.436 503.601C552.56 504.348 552.536 505.112 552.365 505.85C552.194 506.587 551.879 507.284 551.439 507.899C550.999 508.515 550.442 509.038 549.799 509.439C549.157 509.839 548.442 510.11 547.695 510.234L511.047 516.328C509.539 516.577 507.994 516.218 506.751 515.329C505.507 514.44 504.667 513.094 504.415 511.587Z" fill="#6C63FF"/>
<path d="M507.357 529.278C507.108 527.77 507.467 526.225 508.356 524.982C509.245 523.738 510.591 522.898 512.098 522.646L548.746 516.552C549.492 516.428 550.256 516.452 550.994 516.623C551.731 516.794 552.428 517.108 553.044 517.549C553.66 517.989 554.183 518.546 554.583 519.189C554.984 519.831 555.254 520.546 555.378 521.293C555.502 522.04 555.478 522.804 555.307 523.541C555.136 524.278 554.821 524.975 554.381 525.591C553.941 526.207 553.384 526.73 552.741 527.13C552.099 527.531 551.384 527.801 550.637 527.925L513.989 534.019C512.481 534.268 510.936 533.909 509.693 533.02C508.449 532.131 507.609 530.786 507.357 529.278Z" fill="#6C63FF"/>
<path d="M510.299 546.97C510.05 545.462 510.409 543.916 511.298 542.673C512.187 541.43 513.532 540.59 515.04 540.337L551.687 534.243C553.196 533.992 554.742 534.351 555.986 535.24C557.229 536.129 558.069 537.476 558.32 538.984C558.571 540.492 558.212 542.039 557.323 543.282C556.434 544.526 555.087 545.366 553.579 545.617L516.931 551.711C515.423 551.96 513.878 551.6 512.635 550.712C511.391 549.823 510.551 548.477 510.299 546.97Z" fill="#6C63FF"/>
<path d="M473.752 499.388C472.151 497.586 470.965 495.455 470.276 493.145C469.588 490.835 469.414 488.402 469.768 486.018C470.121 483.633 470.993 481.356 472.322 479.345C473.652 477.334 475.405 475.639 477.46 474.379L456.019 372.282L484.438 383.209L500.89 480.747C502.778 484.34 503.282 488.5 502.307 492.439C501.332 496.379 498.946 499.823 495.601 502.121C492.256 504.419 488.184 505.41 484.157 504.906C480.13 504.402 476.428 502.439 473.752 499.388Z" fill="#FFB8B8"/>
<path d="M464.292 822.298L487.683 822.297L498.811 732.069L464.288 732.071L464.292 822.298Z" fill="#FFB6B6"/>
<path d="M458.324 814.661L464.909 814.661L490.614 804.207L504.392 814.659H504.394C512.18 814.66 519.647 817.753 525.152 823.258C530.658 828.764 533.751 836.231 533.751 844.017V844.971L458.326 844.973L458.324 814.661Z" fill="#2F2E41"/>
<path d="M252.929 791.887L273.865 802.321L324.073 726.535L293.175 711.135L252.929 791.887Z" fill="#FFB6B6"/>
<path d="M250.995 782.389L256.888 785.326L284.558 787.437L292.226 802.937L292.227 802.938C299.195 806.412 304.498 812.511 306.97 819.895C309.441 827.278 308.879 835.341 305.406 842.309L304.98 843.163L237.474 809.518L250.995 782.389Z" fill="#2F2E41"/>
<path d="M474.655 412.52L325.922 416.4L328.509 488.826C328.509 488.826 325.922 508.226 331.095 513.4C336.269 518.573 338.855 518.573 336.269 527.626C333.682 536.68 326.995 623.181 326.995 623.181C326.995 623.181 265.95 731.118 268.537 733.705C271.124 736.291 273.71 733.705 271.124 740.172C268.537 746.638 265.95 744.051 268.537 746.638C270.828 749.109 272.987 751.699 275.004 754.398H317.162C317.162 754.398 319.519 741.465 319.519 740.172C319.519 738.878 322.106 731.118 322.106 729.825C322.106 728.531 395.762 650.493 395.762 650.493L411.282 521.16L448.788 647.906C448.788 647.906 448.788 759.133 451.375 761.72C453.962 764.306 453.962 763.013 452.668 768.186C451.375 773.36 446.202 772.066 450.082 775.946C453.962 779.826 455.255 773.36 453.962 779.826L452.668 786.293L502.357 786.848C502.357 786.848 507.531 775.946 504.944 772.066C502.357 768.186 502.513 769.245 505.668 762.896C508.824 756.546 510.117 755.253 508.824 753.96C507.531 752.666 507.531 745.787 507.531 745.787C507.531 745.787 488.882 491.413 488.882 487.533C488.784 485.536 489.152 483.544 489.956 481.714V476.448L485.002 457.786L474.655 412.52Z" fill="#2F2E41"/>
<path d="M608.731 773.69L610.014 744.834C623.393 737.683 638.314 733.906 653.484 733.83C632.606 750.899 635.215 783.802 621.061 806.756C616.591 813.881 610.576 819.909 603.46 824.394C596.344 828.878 588.31 831.704 579.953 832.661L562.482 843.358C560.085 829.993 560.613 816.268 564.031 803.127C567.449 789.986 573.676 777.742 582.281 767.24C587.167 761.395 592.77 756.19 598.956 751.745C603.141 762.779 608.731 773.69 608.731 773.69Z" fill="#F2F2F2"/>
<path d="M397.641 158.521L472.141 309.188L457.565 492.04L362.367 483.342L345.296 180.525L397.641 158.521Z" fill="#2F2E41"/>
<path d="M502.252 471.85L458.719 467.87L458.652 467.318L429.438 225.43L435.976 207.304C437.54 203.001 440.191 199.175 443.671 196.199C447.151 193.223 451.342 191.198 455.836 190.32V190.32C459.259 189.66 462.78 189.685 466.194 190.392C469.608 191.099 472.848 192.475 475.728 194.44C478.608 196.405 481.071 198.92 482.975 201.841C484.879 204.762 486.185 208.031 486.82 211.459L494.638 253.688L505.729 396.432L502.252 471.85Z" fill="#2F2E41"/>
<path d="M388.911 180.863L397.69 159.857L424.863 160.334L453.198 200.414L482.937 325.482C482.937 325.482 493.619 416.844 482.937 421.667C472.256 426.49 436.052 420.534 436.052 420.534L388.911 180.863Z" fill="#6C63FF"/>
<path d="M424.863 160.337C424.863 160.337 483.397 194.173 485.686 211.835C487.976 229.498 495.641 445.675 495.641 445.675L474.941 432.3L469.284 353.511L444.022 192.199L424.863 160.337Z" fill="#2F2E41"/>
<path d="M411.046 150.493C433.078 150.493 450.938 132.633 450.938 110.601C450.938 88.5685 433.078 70.708 411.046 70.708C389.013 70.708 371.153 88.5685 371.153 110.601C371.153 132.633 389.013 150.493 411.046 150.493Z" fill="#FFB8B8"/>
<path d="M365.796 84.3887C370.276 77.4586 378.682 72.8399 386.831 74.1378C387.589 68.9372 389.76 64.0443 393.107 59.992C396.454 55.9396 400.848 52.8831 405.811 51.1553C410.775 49.4275 416.117 49.0945 421.257 50.1927C426.397 51.2908 431.136 53.7781 434.96 57.3835C436.218 56.4981 437.683 55.9524 439.213 55.7992C440.743 55.6461 442.287 55.8907 443.695 56.5093C446.5 57.7846 448.94 59.7431 450.792 62.2056C455.468 68.0369 458.475 75.0271 459.494 82.432C460.512 89.837 459.504 97.3795 456.576 104.257C457.572 100.636 453.943 97.2301 450.277 96.4176C446.611 95.6052 442.766 96.3738 439.048 95.8447C434.284 95.1668 430 92.4026 425.228 91.7806C421.217 91.2578 417.184 92.2861 413.273 93.3168C409.362 94.3474 405.339 95.3986 401.322 94.9216C397.306 94.4447 392.132 109.666 392.201 120.388C392.214 122.419 391.796 125.028 389.81 125.459C387.365 125.99 385.948 122.615 383.621 121.696C382.548 121.388 381.398 121.509 380.413 122.033C379.428 122.557 378.684 123.443 378.34 124.504C378.046 125.583 378.015 126.716 378.248 127.81C378.481 128.903 378.972 129.925 379.68 130.79C381.11 132.506 382.809 133.979 384.709 135.153L383.75 135.95C382.156 138.057 378.849 138.148 376.551 136.845C374.353 135.356 372.573 133.33 371.381 130.959C367.129 123.887 363.4 116.352 361.899 108.238C360.399 100.124 361.317 91.3187 365.796 84.3887Z" fill="#2F2E41"/>
<path d="M278.904 379.831L358.604 294.324C360.219 292.595 362.454 291.578 364.818 291.495C367.183 291.412 369.484 292.27 371.216 293.881L435.793 354.072C437.522 355.687 438.539 357.922 438.622 360.287C438.705 362.651 437.847 364.952 436.236 366.684L356.536 452.191C354.921 453.92 352.686 454.937 350.322 455.021C347.957 455.104 345.656 454.245 343.924 452.634L279.347 392.443C277.618 390.828 276.601 388.593 276.518 386.229C276.435 383.864 277.293 381.564 278.904 379.831Z" fill="#E6E6E6"/>
<path d="M307.93 358.622L359.168 303.65C360.681 302.031 362.774 301.078 364.988 301C367.203 300.922 369.358 301.726 370.98 303.235L426.478 354.964C428.098 356.477 429.051 358.57 429.128 360.784C429.206 362.999 428.403 365.154 426.894 366.776L355.972 442.866C354.459 444.485 352.366 445.438 350.151 445.516C347.937 445.593 345.782 444.79 344.16 443.281L309.78 411.235C302.568 404.498 298.322 395.175 297.976 385.311C297.629 375.448 301.209 365.849 307.93 358.622Z" fill="white"/>
<path d="M353.858 327.363C355.336 325.781 357.381 324.85 359.545 324.774C361.709 324.698 363.815 325.483 365.4 326.958L403.899 362.842C405.484 364.319 406.416 366.365 406.493 368.529C406.569 370.694 405.782 372.8 404.305 374.384C402.828 375.969 400.782 376.901 398.618 376.978C396.453 377.054 394.347 376.267 392.763 374.79L354.264 338.905C352.681 337.427 351.75 335.382 351.674 333.218C351.598 331.054 352.383 328.949 353.858 327.363Z" fill="#E6E6E6"/>
<path d="M336.534 345.948C338.012 344.366 340.058 343.435 342.222 343.359C344.386 343.283 346.491 344.068 348.077 345.543L386.576 381.427C387.36 382.158 387.993 383.037 388.438 384.013C388.883 384.988 389.131 386.042 389.169 387.114C389.207 388.186 389.033 389.255 388.657 390.259C388.282 391.264 387.713 392.185 386.981 392.969C386.25 393.754 385.371 394.387 384.396 394.831C383.42 395.276 382.366 395.525 381.294 395.563C380.222 395.6 379.154 395.426 378.149 395.051C377.144 394.676 376.224 394.106 375.439 393.375L336.94 357.49C335.358 356.012 334.426 353.967 334.35 351.803C334.274 349.639 335.06 347.534 336.534 345.948Z" fill="#E6E6E6"/>
<path d="M319.211 364.534C320.689 362.952 322.734 362.021 324.898 361.945C327.062 361.868 329.168 362.654 330.753 364.128L369.252 400.013C370.837 401.49 371.769 403.535 371.846 405.7C371.922 407.865 371.135 409.971 369.658 411.555C368.181 413.14 366.135 414.072 363.971 414.148C361.806 414.225 359.7 413.438 358.116 411.961L319.617 376.076C318.034 374.598 317.103 372.553 317.027 370.389C316.951 368.225 317.736 366.12 319.211 364.534Z" fill="#E6E6E6"/>
<path d="M412.883 466.453L385.329 505.907L384.045 507.454C381.813 510.138 378.73 511.978 375.309 512.67C374.824 512.767 374.337 512.84 373.849 512.888C373.245 512.95 372.639 512.975 372.032 512.963C371.685 512.956 371.338 512.937 370.992 512.907C368.982 512.734 367.026 512.164 365.237 511.23L353.481 503.02C352.545 502.368 351.877 501.398 351.602 500.29C351.465 499.743 351.426 499.175 351.487 498.614C351.573 497.828 351.857 497.076 352.311 496.428L386.24 447.845C386.96 446.817 388.058 446.116 389.295 445.896C390.531 445.677 391.804 445.956 392.834 446.674L411.713 459.859C411.758 459.89 411.801 459.922 411.845 459.954C411.873 459.975 411.901 459.996 411.928 460.019C411.966 460.047 412.003 460.077 412.038 460.108C412.084 460.145 412.129 460.183 412.172 460.222C412.212 460.259 412.251 460.295 412.29 460.333L412.313 460.355C412.362 460.403 412.411 460.451 412.457 460.501C412.504 460.55 412.551 460.602 412.595 460.654C412.627 460.691 412.659 460.729 412.69 460.767L412.693 460.771C412.784 460.885 412.87 461.002 412.95 461.125C412.976 461.162 413 461.201 413.024 461.24L413.034 461.256C413.054 461.287 413.072 461.318 413.09 461.35C413.145 461.443 413.196 461.539 413.245 461.636C413.324 461.798 413.394 461.963 413.455 462.132C413.475 462.186 413.493 462.241 413.51 462.296C413.524 462.34 413.539 462.385 413.55 462.432L413.554 462.442L413.559 462.46C413.571 462.5 413.582 462.54 413.591 462.579C413.611 462.654 413.628 462.731 413.643 462.809C413.648 462.83 413.653 462.851 413.656 462.873C413.661 462.893 413.664 462.915 413.668 462.937C413.672 462.958 413.675 462.979 413.679 462.999L413.685 463.033C413.694 463.096 413.702 463.159 413.709 463.221C413.717 463.299 413.724 463.378 413.728 463.456C413.732 463.521 413.735 463.585 413.736 463.649C413.738 463.708 413.737 463.766 413.737 463.824C413.737 463.839 413.736 463.854 413.735 463.869C413.734 463.929 413.731 463.989 413.728 464.048C413.719 464.199 413.701 464.349 413.678 464.497C413.668 464.552 413.659 464.606 413.648 464.66C413.635 464.727 413.621 464.792 413.605 464.857C413.6 464.881 413.593 464.906 413.587 464.93C413.577 464.966 413.567 465.002 413.557 465.037C413.546 465.077 413.534 465.117 413.522 465.156L413.491 465.25C413.473 465.307 413.453 465.361 413.432 465.415C413.419 465.448 413.407 465.481 413.393 465.514C413.298 465.749 413.184 465.977 413.053 466.194C413.035 466.22 413.02 466.246 413.003 466.273C412.965 466.334 412.925 466.393 412.883 466.453Z" fill="white"/>
<path d="M394.223 467.953C396.457 467.953 398.268 466.142 398.268 463.908C398.268 461.674 396.457 459.863 394.223 459.863C391.989 459.863 390.179 461.674 390.179 463.908C390.179 466.142 391.989 467.953 394.223 467.953Z" fill="#6C63FF"/>
<path d="M348.531 506.648C346.93 504.847 345.743 502.716 345.055 500.406C344.366 498.096 344.193 495.663 344.546 493.278C344.9 490.894 345.772 488.616 347.101 486.605C348.43 484.595 350.184 482.9 352.239 481.64L330.797 379.543L359.216 390.47L375.668 488.008C377.556 491.6 378.06 495.761 377.085 499.7C376.11 503.639 373.724 507.084 370.379 509.382C367.034 511.68 362.962 512.67 358.935 512.167C354.909 511.663 351.207 509.699 348.531 506.648Z" fill="#FFB8B8"/>
<path d="M332.785 465.218L321.219 390.696L316.873 247.575L320.103 204.678C320.365 201.201 321.313 197.811 322.891 194.702C324.469 191.593 326.647 188.827 329.299 186.564C331.951 184.3 335.024 182.584 338.342 181.513C341.66 180.443 345.158 180.04 348.632 180.327C353.195 180.716 357.579 182.278 361.359 184.863C365.139 187.447 368.186 190.965 370.205 195.075L378.655 212.392L375.638 456.575L332.785 465.218Z" fill="#2F2E41"/>
<path d="M696.579 844.732C696.579 845.013 696.525 845.292 696.417 845.552C696.31 845.812 696.153 846.048 695.954 846.247C695.755 846.446 695.518 846.604 695.258 846.711C694.998 846.818 694.72 846.873 694.438 846.872H118.445C117.877 846.872 117.333 846.646 116.932 846.245C116.53 845.844 116.305 845.299 116.305 844.732C116.305 844.164 116.53 843.62 116.932 843.219C117.333 842.817 117.877 842.592 118.445 842.592H694.438C694.72 842.591 694.998 842.646 695.258 842.753C695.518 842.86 695.755 843.018 695.954 843.217C696.153 843.416 696.31 843.652 696.417 843.912C696.525 844.172 696.579 844.451 696.579 844.732Z" fill="#CCCCCC"/>
<path d="M379.807 126.772C379.832 126.32 379.968 125.882 380.203 125.495C380.437 125.108 380.764 124.785 381.153 124.554C381.542 124.324 381.982 124.192 382.434 124.172C382.886 124.151 383.336 124.243 383.744 124.437C384.153 124.632 384.507 124.924 384.776 125.288C385.044 125.652 385.219 126.077 385.285 126.525C385.35 126.972 385.305 127.429 385.152 127.855C384.999 128.281 384.744 128.663 384.409 128.966L389.04 136.577C389.23 136.889 389.288 137.264 389.202 137.619C389.116 137.974 388.892 138.281 388.579 138.471C388.267 138.661 387.892 138.719 387.537 138.632C387.182 138.546 386.876 138.322 386.686 138.01L381.479 129.452C380.958 129.232 380.518 128.856 380.219 128.376C379.92 127.897 379.776 127.336 379.807 126.772Z" fill="white"/>
<path d="M383.057 131.945C383.228 132.284 383.642 132.421 383.982 132.25C384.322 132.078 384.458 131.664 384.287 131.324L383.046 128.864C382.875 128.524 382.461 128.388 382.121 128.559C381.781 128.73 381.645 129.145 381.816 129.484L383.057 131.945Z" fill="#2F2E41"/>
</svg>
