<svg width="27" height="43" viewBox="0 0 27 43" fill="none" xmlns="http://www.w3.org/2000/svg">
<path d="M22.2307 0.867188H3.92577C1.76024 0.867188 0.0032959 2.62413 0.0032959 4.78966V38.7845C0.0032959 40.95 1.76024 42.7069 3.92577 42.7069H22.2307C24.3962 42.7069 26.1531 40.95 26.1531 38.7845V4.78966C26.1531 2.62413 24.3962 0.867188 22.2307 0.867188ZM13.0782 40.092C11.6318 40.092 10.4632 38.9234 10.4632 37.477C10.4632 36.0306 11.6318 34.862 13.0782 34.862C14.5246 34.862 15.6932 36.0306 15.6932 37.477C15.6932 38.9234 14.5246 40.092 13.0782 40.092ZM22.2307 31.2664C22.2307 31.8057 21.7894 32.247 21.25 32.247H4.90639C4.36705 32.247 3.92577 31.8057 3.92577 31.2664V5.77028C3.92577 5.23094 4.36705 4.78966 4.90639 4.78966H21.25C21.7894 4.78966 22.2307 5.23094 22.2307 5.77028V31.2664Z" fill="white"/>
</svg>
