<svg width="34" height="45" viewBox="0 0 34 45" fill="none" xmlns="http://www.w3.org/2000/svg">
<path d="M14.9306 43.4802C2.33751 25.2239 0 23.3503 0 16.6408C0 7.45032 7.45032 0 16.6408 0C25.8313 0 33.2816 7.45032 33.2816 16.6408C33.2816 23.3503 30.9441 25.2239 18.351 43.4802C17.5246 44.674 15.7569 44.6739 14.9306 43.4802ZM16.6408 23.5745C20.4702 23.5745 23.5745 20.4702 23.5745 16.6408C23.5745 12.8114 20.4702 9.70714 16.6408 9.70714C12.8114 9.70714 9.70714 12.8114 9.70714 16.6408C9.70714 20.4702 12.8114 23.5745 16.6408 23.5745Z" fill="white"/>
</svg>
