<svg width="53" height="33" viewBox="0 0 53 33" fill="none" xmlns="http://www.w3.org/2000/svg">
<path d="M20.9522 14.6124C23.8241 13.2396 25.3233 11.1625 25.3233 7.92933C25.3233 1.55335 20.5729 0 15.091 0H0V32.0063H15.5155C21.3315 32.0063 26.7953 29.2157 26.7953 22.7133C26.7953 18.6944 24.8898 15.7232 20.9522 14.6124ZM7.03525 5.46383H13.637C16.1747 5.46383 18.4596 6.17729 18.4596 9.12143C18.4596 11.8398 16.6805 12.9326 14.1698 12.9326H7.03525V5.46383ZM14.5582 26.5696H7.03525V17.7552H14.7027C17.8003 17.7552 19.7601 19.0466 19.7601 22.3249C19.7601 25.5581 17.421 26.5696 14.5582 26.5696ZM46.9348 4.83165H33.957V1.67979H46.9348V4.83165ZM52.0193 20.7535C52.0193 13.8989 48.0095 8.1822 40.7394 8.1822C33.6771 8.1822 28.8815 13.4925 28.8815 20.4465C28.8815 27.6623 33.4242 32.6114 40.7394 32.6114C46.2755 32.6114 49.8608 30.1188 51.5858 24.8175H45.9684C45.3633 26.7953 42.8708 27.843 40.9381 27.843C37.2082 27.843 35.2485 25.6574 35.2485 21.9456H51.9651C51.9922 21.5663 52.0193 21.1599 52.0193 20.7535ZM35.2575 17.9358C35.4652 14.8923 37.4882 12.9868 40.5407 12.9868C43.7377 12.9868 45.3453 14.8652 45.6162 17.9358H35.2575Z" fill="black"/>
</svg>
