<svg width="41" height="41" viewBox="0 0 41 41" fill="none" xmlns="http://www.w3.org/2000/svg">
<path d="M20.2455 9.85973C14.5017 9.85973 9.86876 14.4927 9.86876 20.2365C9.86876 25.9803 14.5017 30.6133 20.2455 30.6133C25.9893 30.6133 30.6223 25.9803 30.6223 20.2365C30.6223 14.4927 25.9893 9.85973 20.2455 9.85973ZM20.2455 26.9827C16.5337 26.9827 13.4993 23.9573 13.4993 20.2365C13.4993 16.5157 16.5247 13.4902 20.2455 13.4902C23.9663 13.4902 26.9918 16.5157 26.9918 20.2365C26.9918 23.9573 23.9573 26.9827 20.2455 26.9827ZM33.4671 9.43527C33.4671 10.7809 32.3834 11.8556 31.0468 11.8556C29.7011 11.8556 28.6264 10.7719 28.6264 9.43527C28.6264 8.09866 29.7101 7.01493 31.0468 7.01493C32.3834 7.01493 33.4671 8.09866 33.4671 9.43527ZM40.3398 11.8917C40.1863 8.64956 39.4457 5.77766 37.0705 3.41151C34.7044 1.04535 31.8325 0.3048 28.5903 0.14224C25.2488 -0.0474134 15.2333 -0.0474134 11.8917 0.14224C8.65859 0.295769 5.78669 1.03632 3.41151 3.40248C1.03632 5.76863 0.3048 8.64053 0.14224 11.8827C-0.0474134 15.2242 -0.0474134 25.2397 0.14224 28.5812C0.295769 31.8234 1.03632 34.6953 3.41151 37.0615C5.78669 39.4276 8.64956 40.1682 11.8917 40.3307C15.2333 40.5204 25.2488 40.5204 28.5903 40.3307C31.8325 40.1772 34.7044 39.4367 37.0705 37.0615C39.4367 34.6953 40.1772 31.8234 40.3398 28.5812C40.5294 25.2397 40.5294 15.2332 40.3398 11.8917ZM36.0229 32.1666C35.3185 33.9367 33.9548 35.3004 32.1756 36.0139C29.5115 37.0705 23.1897 36.8267 20.2455 36.8267C17.3014 36.8267 10.9706 37.0615 8.31541 36.0139C6.54531 35.3094 5.18161 33.9457 4.46815 32.1666C3.41151 29.5024 3.65535 23.1806 3.65535 20.2365C3.65535 17.2923 3.42054 10.9615 4.46815 8.30638C5.17258 6.53628 6.53628 5.17258 8.31541 4.45912C10.9796 3.40248 17.3014 3.64632 20.2455 3.64632C23.1897 3.64632 29.5205 3.41151 32.1756 4.45912C33.9457 5.16355 35.3094 6.52725 36.0229 8.30638C37.0795 10.9706 36.8357 17.2923 36.8357 20.2365C36.8357 23.1806 37.0795 29.5115 36.0229 32.1666Z" fill="black"/>
</svg>
