<svg width="41" height="41" viewBox="0 0 41 41" fill="none" xmlns="http://www.w3.org/2000/svg">
<path d="M37.5695 0H2.88093C1.29145 0 0 1.30951 0 2.91705V37.5424C0 39.1499 1.29145 40.4594 2.88093 40.4594H37.5695C39.159 40.4594 40.4594 39.1499 40.4594 37.5424V2.91705C40.4594 1.30951 39.159 0 37.5695 0ZM12.2281 34.6795H6.23148V15.371H12.2372V34.6795H12.2281ZM9.22981 12.7339C7.30618 12.7339 5.75283 11.1715 5.75283 9.2569C5.75283 7.3423 7.30618 5.77992 9.22981 5.77992C11.1444 5.77992 12.7068 7.3423 12.7068 9.2569C12.7068 11.1805 11.1534 12.7339 9.22981 12.7339ZM34.7066 34.6795H28.7099V25.2871C28.7099 23.0474 28.6648 20.1665 25.5942 20.1665C22.4694 20.1665 21.9908 22.6049 21.9908 25.1246V34.6795H15.9941V15.371H21.7469V18.0081H21.8282C22.632 16.4908 24.5918 14.8923 27.5088 14.8923C33.5777 14.8923 34.7066 18.8931 34.7066 24.095V34.6795Z" fill="black"/>
</svg>
