<svg width="54" height="72" viewBox="0 0 54 72" fill="none" xmlns="http://www.w3.org/2000/svg">
<path d="M24.0678 70.0889C3.76801 40.6603 0 37.64 0 26.8245C0 12.0097 12.0097 0 26.8245 0C41.6394 0 53.6491 12.0097 53.6491 26.8245C53.6491 37.64 49.8811 40.6603 29.5813 70.0889C28.2492 72.0133 25.3998 72.0132 24.0678 70.0889ZM26.8245 38.0014C32.9974 38.0014 38.0014 32.9974 38.0014 26.8245C38.0014 20.6517 32.9974 15.6477 26.8245 15.6477C20.6517 15.6477 15.6477 20.6517 15.6477 26.8245C15.6477 32.9974 20.6517 38.0014 26.8245 38.0014Z" fill="black"/>
</svg>
