<svg width="41" height="31" viewBox="0 0 41 31" fill="none" xmlns="http://www.w3.org/2000/svg">
<path d="M36.44 0.0273438H3.76965C1.68771 0.0273438 0 1.71505 0 3.797V26.4149C0 28.4969 1.68771 30.1846 3.76965 30.1846H36.44C38.5219 30.1846 40.2096 28.4969 40.2096 26.4149V3.797C40.2096 1.71505 38.5219 0.0273438 36.44 0.0273438ZM36.44 3.797V7.0016C34.6791 8.43556 31.8718 10.6653 25.8703 15.3647C24.5477 16.4051 21.9278 18.9044 20.1048 18.8753C18.2822 18.9047 15.6614 16.4047 14.3394 15.3647C8.33879 10.666 5.53079 8.43579 3.76965 7.0016V3.797H36.44ZM3.76965 26.4149V11.8388C5.56919 13.2721 8.12117 15.2834 12.0109 18.3293C13.7274 19.6805 16.7335 22.6633 20.1048 22.6452C23.4596 22.6633 26.4275 19.7238 28.198 18.33C32.0877 15.2842 34.6404 13.2723 36.44 11.8388V26.4149H3.76965Z" fill="black"/>
</svg>
