<svg width="50" height="35" viewBox="0 0 50 35" fill="none" xmlns="http://www.w3.org/2000/svg">
<path d="M48.2914 5.42617C47.7242 3.29031 46.0529 1.60817 43.9308 1.03731C40.0845 0 24.661 0 24.661 0C24.661 0 9.23767 0 5.39122 1.03731C3.26918 1.60826 1.59788 3.29031 1.03063 5.42617C0 9.29754 0 17.3748 0 17.3748C0 17.3748 0 25.4521 1.03063 29.3234C1.59788 31.4593 3.26918 33.0713 5.39122 33.6422C9.23767 34.6795 24.661 34.6795 24.661 34.6795C24.661 34.6795 40.0844 34.6795 43.9308 33.6422C46.0529 33.0713 47.7242 31.4593 48.2914 29.3234C49.322 25.4521 49.322 17.3748 49.322 17.3748C49.322 17.3748 49.322 9.29754 48.2914 5.42617ZM19.6167 24.7083V10.0413L32.5076 17.375L19.6167 24.7083Z" fill="black"/>
</svg>
